<svg width="235" height="235" viewBox="0 0 235 235" fill="none" xmlns="http://www.w3.org/2000/svg">
<defs>
  <linearGradient id="logoGradient" x1="0%" y1="0%" x2="100%" y2="100%">
    <stop offset="0%" style="stop-color:#8b5cf6;stop-opacity:1" />
    <stop offset="100%" style="stop-color:#ec4899;stop-opacity:1" />
  </linearGradient>
</defs>
<path d="M78.5 16C74.2 17.45 71.2 19.35 67.5 22.95C57.7 32.5 53.05 45.65 53 63.8C53 72.6 54.45 84.1 55.9 86.85C56.2 87.4 58.7 89.05 61.35 90.5C66.5 93.25 72.05 96.9 75 99.5C77.6 101.8 78.45 102.2 78.8 101.25C79.15 100.45 78.55 98.75 76.05 93.45C74.3 89.65 72.35 84.25 71.55 80.85C71.25 79.55 70.75 77.45 70.4 76.1C69.6 72.85 69.65 56.6 70.5 53C72.9 42.8 77.15 35.5 82.05 33C91.35 28.25 101.9 41.45 105.45 62.25C105.75 63.9 106.2 67.15 106.55 69.5C108.3 82.15 111.55 91.9 118.65 105.75C124.3 116.8 131.5 127.45 140.25 137.75C141.4 139.1 144.15 142.4 146.3 145C148.45 147.6 151.25 150.85 152.55 152.25C153.8 153.6 157.05 157.1 159.7 160C162.4 162.9 166.5 167.85 168.9 171C177.95 182.95 180.05 191.25 175.65 197.65C169.85 206.05 152.9 204.2 137.4 193.55C132.5 190.2 132 189.75 132 189C132 188.65 133.1 186.9 134.4 185.05C140.8 176.4 143.25 171.9 145.55 164.9C146.8 161.05 147 159.65 147 155.05V149.65L145.1 146.7C142.85 143.25 137.7 138.45 134.5 136.9C131.1 135.2 125.15 135.35 121.8 137.15L119.35 138.45L117.3 137.3C112.9 134.85 108.05 135.1 103.55 138C100.7 139.85 93.55 147.7 92.1 150.65C91.1 152.65 91.65 159.65 93.2 164.6C95.2 170.9 100.55 180.35 105.6 186.5C107.85 189.25 107.9 189.25 101.75 193.45C84.2 205.45 66.35 206.2 61.75 195.15C60.8 192.85 60.8 186.85 61.8 184.05C63.45 179.2 69.5 170.65 76.5 163.15C78.25 161.25 82.3 156.95 85.55 153.5C99.55 138.55 111.4 122.9 116.55 112.5C117.95 109.75 117.95 109.75 117 108.2C115.65 106.1 111 96.65 111 96.15C111 95.05 109.7 93 109 93C108.6 93.05 107.7 94.2 107.05 95.65C104.25 101.8 94.2 118.4 92.35 119.95C91.75 120.45 90.95 119.75 87.7 115.9C81.5 108.45 75.15 102.45 69.3 98.55C58.5 91.3 52.2 88.4 43.55 86.7C36.5 85.4 31 86.1 25.1 89.1C21.2 91.05 16.55 95.6 14.8 99.15C12 104.95 11.75 106.2 11.75 114.75C11.75 124.85 13 130.45 17.1 138.75C21.6 147.9 30.05 157.95 37.25 162.85C40.7 165.15 46.15 168 47.2 168C47.55 168 49.7 165.45 51.95 162.3C54.15 159.15 56.2 156.45 56.5 156.25C57.9 155.4 56.85 154.2 53.5 152.85C49.8 151.35 43.4 146.85 40.45 143.7C32.45 135.05 28 125 28 115.4C28 108 30.5 104.05 35.75 103.25C41.3 102.35 54.65 108.05 62.5 114.65C69.75 120.7 80 132.65 80 135.05C80 135.35 76.55 139.1 72.35 143.4C68.15 147.7 63.35 152.7 61.7 154.5C60.1 156.3 58.65 157.85 58.5 158C56.65 159.75 49.75 170.1 48.3 173.25C44.9 180.7 44.05 184.1 44 190.25C44 200.45 48.3 208.75 56.5 214.3C63.85 219.25 73 220.95 83 219.25C85.35 218.85 88.15 218.3 89.25 217.95C92.65 217 100.1 213.9 102.65 212.4C103.95 211.65 105.15 211 105.3 211C105.65 211 114.25 205.25 116.8 203.3C118.1 202.3 119.35 201.5 119.6 201.5C119.9 201.5 122.25 203.1 124.9 205.05C135.25 212.65 144.4 216.95 154.8 219.05C171.9 222.5 187.1 215.5 192.65 201.6C194.1 197.95 194.2 197.35 194.25 191C194.25 183 193.35 179.45 189.55 172.25C185.1 163.9 179.25 156.5 165.8 142.3C162.2 138.5 159.2 134.95 159.1 134.45C158.8 132.85 163 127.4 169.45 121C179.2 111.3 188.25 105.85 198.4 103.5C203.8 102.25 208.65 105 210.05 110.1C210.85 113.15 210.3 120.7 208.95 125.1C205.25 137.1 195.3 148.5 184.75 152.95C182.95 153.7 181.35 154.45 181.2 154.65C181.05 154.8 181.95 156.25 183.2 157.85C187.1 162.85 189.05 165.55 189.6 166.8C190.35 168.45 191.95 168.35 195.3 166.5C206.1 160.6 215.7 150.6 220.8 140C224.3 132.8 225 130.85 226.25 124.9C227.2 120.25 227.25 109.65 226.3 106.25C224.4 99.4 221.55 94.85 216.95 91.45C207.35 84.2 195.6 84.3 180.75 91.7C175.55 94.25 168.4 98.8 164.5 101.95C160.2 105.45 153.15 112.5 150.2 116.2C148.6 118.3 147.05 120 146.75 120C146.1 120 137.5 106.7 134.05 100.35C127.8 88.9 123.05 78.1 121.25 71.25C119.5 64.65 118.05 54.45 118 48.95C118 44.2 117.4 42.35 113.85 35.5C111.05 30.25 109.25 27.7 105.8 24.2C99.45 17.85 93.1 14.95 85.6 15.05C82.75 15.05 80.3 15.4 78.5 16ZM114 152.3C114.7 152.8 116.2 154.05 117.35 155.15L119.45 157.15L122.1 154.35C124.3 152 125.1 151.5 126.45 151.5C128.7 151.5 131 153.95 131 156.3C131 160.2 127.1 167.8 121.8 174.2L119.35 177.15L118.15 175.7C111.15 167.25 106.65 156.95 108.5 153.55C109.55 151.55 112.05 151 114 152.3Z" fill="url(#logoGradient)"/>
<path d="M145.95 15.7C136.45 18.35 127.2 28.3 122.15 41.35C121.05 44.3 120.85 45.45 120.9 50.05C120.9 52.95 121.2 57.2 121.5 59.55C122.7 68.2 127.5 83.5 129 83.5C129.85 83.5 130.3 81.55 131.2 74C132.45 63.25 133.25 59.4 135.6 52.25C138.75 42.6 143.6 35.55 148.9 32.8C154.2 30.05 160.65 33.8 164.45 41.75C169.85 52.9 170.4 67.6 166.1 83.5C165.2 86.8 163.9 90.25 161.7 95.05C158.55 101.95 158.8 102.65 163.3 99.35C169.25 95 174.15 91.9 177.8 90.2C179.85 89.2 181.8 87.95 182.2 87.35C182.55 86.75 183.1 84.9 183.4 83.25C183.7 81.6 184.25 78.65 184.6 76.75C185.45 71.9 185.45 54.15 184.55 50C181.55 35.5 174.05 23.35 165 18.2C159.65 15.15 151.75 14.1 145.95 15.7Z" fill="url(#logoGradient)"/>
</svg>
